.
..............................Site Info...........................

 -   http://www.scenetime.com  *_*   


Scenetime .Always on time . friendly online private torrent community ..

     We care to share . Join us on  http://www.scenetime.com 

    Be the first to get new release at  http://www.scenetime.com

        Seed back for speed


...................................NFO:.................................................[img]http://i.imgur.com/brekn.jpg[/img]

[b]Coriolanus.2011.LIMITED.BRRiP.XViD.AC3-ADTRG[/b]

A banished hero of Rome allies with a sworn enemy to take his revenge on the city.  

[url]http://www.imdb.com/title/tt1372686/[/url]

Source -  Coriolanus 2011 LIMITED 1080p BluRay x264 - ALLiANCE   Thanks

Complete name                            : Coriolanus.2011.LIMITED.BRRiP.XViD.AC3-ADTRG.avi
Format                                   : AVI
Format/Info                              : Audio Video Interleave
File size                                : 2.04 GiB
Duration                                 : 2h 3mn
Overall bit rate                         : 2 366 Kbps

Video
ID                                       : 0
Format                                   : MPEG-4 Visual
Codec ID                                 : XVID
Duration                                 : 2h 3mn
Bit rate                                 : 1 973 Kbps
Width                                    : 720 pixels
Height                                   : 304 pixels
Display aspect ratio                     : 2.35:1
Frame rate                               : 23.976 fps
Stream size                              : 1.70 GiB (83%)

Audio
ID                                       : 1
Format                                   : AC-3
Duration                                 : 2h 3mn
Bit rate                                 : 384 Kbps
Channel(s)                               : 6 channels
Channel positions                        : Front: L C R, Side: L R, LFE
Sampling rate                            : 48.0 KHz
Stream size                              : 339 MiB (16%)



Encoder - LiMeY
Good things come in small packages, So feel the wrath of my compression

[img]http://i.imgur.com/tHmpE.jpg[/img]


[IMG]http://i.imgur.com/2739o.gif?1?8830[/IMG]

Dont fear the Atomic Dragon, Embrace it  :)


Greetz to DragonMaster,cOOkies,Mr Geek,DBratt420,AnimeKing,Cush,NoWoRRiEs Rayne, Mr & Mrs IrNbRu and the rest of the crew

Respect to CM8,Goon,Hope,mSD,InfernO,legend-rg and maybe a few more ;)